<?xml version="1.0" encoding="UTF-8"?>
<svg xmlns="http://www.w3.org/2000/svg" xmlns:xlink="http://www.w3.org/1999/xlink" width="50px" height="50px" viewBox="0 0 50 50" version="1.1">
<g id="surface1">
<path style=" stroke:none;fill-rule:nonzero;fill:rgb(0%,34.901961%,61.176471%);fill-opacity:1;" d="M 46.757812 37.535156 C 47.105469 36.933594 47.320312 36.25 47.320312 35.636719 L 47.320312 14.410156 C 47.320312 13.796875 47.105469 13.113281 46.757812 12.515625 L 25 25.027344 Z M 46.757812 37.535156 "/>
<path style=" stroke:none;fill-rule:nonzero;fill:rgb(0%,26.666667%,50.980392%);fill-opacity:1;" d="M 26.933594 49.59375 L 45.390625 38.980469 C 45.917969 38.671875 46.402344 38.140625 46.757812 37.535156 L 25 25.027344 L 3.242188 37.535156 C 3.597656 38.140625 4.082031 38.671875 4.609375 38.980469 L 23.066406 49.59375 C 24.128906 50.203125 25.871094 50.203125 26.933594 49.59375 Z M 26.933594 49.59375 "/>
<path style=" stroke:none;fill-rule:nonzero;fill:rgb(39.607843%,60.392157%,82.352941%);fill-opacity:1;" d="M 46.757812 12.515625 C 46.402344 11.90625 45.917969 11.378906 45.390625 11.078125 L 26.933594 0.460938 C 25.871094 -0.152344 24.128906 -0.152344 23.066406 0.460938 L 4.609375 11.078125 C 3.550781 11.683594 2.679688 13.183594 2.679688 14.410156 L 2.679688 35.636719 C 2.679688 36.25 2.894531 36.933594 3.242188 37.535156 L 25 25.027344 Z M 46.757812 12.515625 "/>
<path style=" stroke:none;fill-rule:nonzero;fill:rgb(100%,100%,100%);fill-opacity:1;" d="M 25 39.851562 C 16.796875 39.851562 10.121094 33.203125 10.121094 25.027344 C 10.121094 16.851562 16.796875 10.199219 25 10.199219 C 30.292969 10.199219 35.234375 13.035156 37.882812 17.605469 L 31.445312 21.324219 C 30.121094 19.035156 27.652344 17.613281 25 17.613281 C 20.898438 17.613281 17.558594 20.941406 17.558594 25.027344 C 17.558594 29.117188 20.898438 32.4375 25 32.4375 C 27.652344 32.4375 30.121094 31.019531 31.445312 28.730469 L 37.890625 32.441406 C 35.234375 37.011719 30.292969 39.851562 25 39.851562 Z M 25 39.851562 "/>
<path style=" stroke:none;fill-rule:nonzero;fill:rgb(100%,100%,100%);fill-opacity:1;" d="M 39.878906 24.203125 L 38.226562 24.203125 L 38.226562 22.550781 L 36.574219 22.550781 L 36.574219 24.203125 L 34.917969 24.203125 L 34.917969 25.851562 L 36.574219 25.851562 L 36.574219 27.496094 L 38.226562 27.496094 L 38.226562 25.851562 L 39.878906 25.851562 Z M 39.878906 24.203125 "/>
<path style=" stroke:none;fill-rule:nonzero;fill:rgb(100%,100%,100%);fill-opacity:1;" d="M 46.078125 24.203125 L 44.425781 24.203125 L 44.425781 22.550781 L 42.773438 22.550781 L 42.773438 24.203125 L 41.121094 24.203125 L 41.121094 25.851562 L 42.773438 25.851562 L 42.773438 27.496094 L 44.425781 27.496094 L 44.425781 25.851562 L 46.078125 25.851562 Z M 46.078125 24.203125 "/>
</g>
</svg>
