<?xml version="1.0" encoding="UTF-8"?>
<svg xmlns="http://www.w3.org/2000/svg" xmlns:xlink="http://www.w3.org/1999/xlink" width="50px" height="50px" viewBox="0 0 50 50" version="1.1">
<g id="surface1">
<path style="fill:none;stroke-width:4;stroke-linecap:butt;stroke-linejoin:round;stroke:rgb(0%,0%,0%);stroke-opacity:1;stroke-miterlimit:10;" d="M 63.035394 200.619567 L 19.807418 25.652562 L 193.038217 75.541898 Z M 63.035394 200.619567 " transform="matrix(0.220488,0,0,0.220488,1.976452,0.937668)"/>
<path style="fill:none;stroke-width:4;stroke-linecap:butt;stroke-linejoin:round;stroke:rgb(0%,0%,0%);stroke-opacity:1;stroke-miterlimit:10;" d="M 106.405101 50.59723 L 127.983657 138.116165 L 41.421406 113.171497 Z M 106.405101 50.59723 " transform="matrix(0.220488,0,0,0.220488,1.976452,0.937668)"/>
<path style="fill:none;stroke-width:4;stroke-linecap:butt;stroke-linejoin:round;stroke:rgb(0%,0%,0%);stroke-opacity:1;stroke-miterlimit:10;" d="M 84.897412 125.041474 L 74.196716 81.565468 L 117.176663 93.896071 Z M 84.897412 125.041474 " transform="matrix(0.220488,0,0,0.220488,1.976452,0.937668)"/>
<path style="fill:none;stroke-width:4;stroke-linecap:butt;stroke-linejoin:round;stroke:rgb(0%,0%,0%);stroke-opacity:1;stroke-miterlimit:10;" d="M 63.460587 38.160328 L 74.196716 81.600901 L 31.181336 69.270298 Z M 63.460587 38.160328 " transform="matrix(0.220488,0,0,0.220488,1.976452,0.937668)"/>
<path style="fill:none;stroke-width:4;stroke-linecap:butt;stroke-linejoin:round;stroke:rgb(0%,0%,0%);stroke-opacity:1;stroke-miterlimit:10;" d="M 149.455914 62.927833 L 160.192042 106.403838 L 117.176663 94.037803 Z M 149.455914 62.927833 " transform="matrix(0.220488,0,0,0.220488,1.976452,0.937668)"/>
<path style="fill:none;stroke-width:4;stroke-linecap:butt;stroke-linejoin:round;stroke:rgb(0%,0%,0%);stroke-opacity:1;stroke-miterlimit:10;" d="M 84.897412 125.076907 L 95.63354 168.517479 L 52.618161 156.186876 Z M 84.897412 125.076907 " transform="matrix(0.220488,0,0,0.220488,1.976452,0.937668)"/>
</g>
</svg>
