<?xml version="1.0" encoding="UTF-8"?>
<svg xmlns="http://www.w3.org/2000/svg" xmlns:xlink="http://www.w3.org/1999/xlink" width="50px" height="50px" viewBox="0 0 50 49" version="1.1">
<defs>
<linearGradient id="linear0" gradientUnits="userSpaceOnUse" x1="6.00017" y1="32.9999" x2="235" y2="344" gradientTransform="matrix(0.121951,0,0,0.121287,0,0)">
<stop offset="0" style="stop-color:rgb(25.490196%,81.960784%,100%);stop-opacity:1;"/>
<stop offset="1" style="stop-color:rgb(74.117647%,20.392157%,99.607843%);stop-opacity:1;"/>
</linearGradient>
<linearGradient id="linear1" gradientUnits="userSpaceOnUse" x1="194.651" y1="8.81818" x2="236.076" y2="292.989" gradientTransform="matrix(0.121951,0,0,0.121287,0,0)">
<stop offset="0" style="stop-color:rgb(100%,91.764706%,51.372549%);stop-opacity:1;"/>
<stop offset="0.0833333" style="stop-color:rgb(100%,86.666667%,20.784314%);stop-opacity:1;"/>
<stop offset="1" style="stop-color:rgb(100%,65.882353%,0%);stop-opacity:1;"/>
</linearGradient>
</defs>
<g id="surface1">
<path style=" stroke:none;fill-rule:nonzero;fill:url(#linear0);" d="M 48.738281 7.21875 L 26.296875 47.125 C 25.835938 47.949219 24.644531 47.953125 24.175781 47.132812 L 1.289062 7.222656 C 0.777344 6.328125 1.546875 5.246094 2.5625 5.429688 L 25.027344 9.421875 C 25.171875 9.449219 25.316406 9.445312 25.460938 9.421875 L 47.453125 5.433594 C 48.46875 5.25 49.238281 6.324219 48.738281 7.21875 Z M 48.738281 7.21875 "/>
<path style=" stroke:none;fill-rule:nonzero;fill:url(#linear1);" d="M 35.726562 0.191406 L 19.121094 3.425781 C 18.847656 3.480469 18.648438 3.710938 18.628906 3.984375 L 17.609375 21.144531 C 17.585938 21.546875 17.957031 21.863281 18.355469 21.769531 L 22.976562 20.710938 C 23.410156 20.609375 23.800781 20.988281 23.710938 21.421875 L 22.339844 28.109375 C 22.246094 28.5625 22.671875 28.945312 23.113281 28.8125 L 25.96875 27.949219 C 26.410156 27.816406 26.835938 28.203125 26.742188 28.652344 L 24.5625 39.160156 C 24.425781 39.816406 25.304688 40.175781 25.667969 39.613281 L 25.914062 39.238281 L 39.445312 12.378906 C 39.671875 11.929688 39.28125 11.417969 38.785156 11.511719 L 34.027344 12.425781 C 33.578125 12.511719 33.199219 12.097656 33.324219 11.664062 L 36.429688 0.953125 C 36.558594 0.519531 36.175781 0.105469 35.726562 0.191406 Z M 35.726562 0.191406 "/>
</g>
</svg>
